<svg width="94" height="48" viewBox="0 0 94 48" fill="none" xmlns="http://www.w3.org/2000/svg">
<path d="M1.16 37V34.12L4.4 33.2L3.84 34.04V18.68L4.48 19.64L1.16 18.64V15.76L8.2 15.44L8.92 19.24L8.2 19.08C9.4 17.8267 10.5867 16.8667 11.76 16.2C12.9333 15.5067 14.1867 15.16 15.52 15.16C16.3733 15.16 17.28 15.2933 18.24 15.56L17.88 22.96H14.64L14.04 18.64L14.56 19.72C14.4 19.6667 14.2267 19.6267 14.04 19.6C13.88 19.5733 13.72 19.56 13.56 19.56C12.7333 19.56 11.9067 19.8133 11.08 20.32C10.28 20.8267 9.58667 21.48 9 22.28L9.44 20.76V34.04L8.8 33.2L12.76 34.12V37H1.16ZM29.965 15.16C33.1117 15.16 35.565 16.0933 37.325 17.96C39.085 19.8267 39.965 22.48 39.965 25.92C39.965 28.32 39.5383 30.3867 38.685 32.12C37.8317 33.8267 36.605 35.1467 35.005 36.08C33.405 37.0133 31.485 37.48 29.245 37.48C26.0983 37.48 23.6583 36.5467 21.925 34.68C20.2183 32.8133 19.365 30.16 19.365 26.72C19.365 24.32 19.7783 22.2667 20.605 20.56C21.4583 18.8267 22.6717 17.4933 24.245 16.56C25.8183 15.6267 27.725 15.16 29.965 15.16ZM29.685 19.16C28.165 19.16 27.0317 19.76 26.285 20.96C25.5383 22.1333 25.165 23.96 25.165 26.44C25.165 28.92 25.525 30.72 26.245 31.84C26.965 32.9333 28.0583 33.48 29.525 33.48C30.5917 33.48 31.4583 33.2133 32.125 32.68C32.7917 32.1467 33.2983 31.3333 33.645 30.24C33.9917 29.1467 34.165 27.8 34.165 26.2C34.165 23.7733 33.7917 22 33.045 20.88C32.2983 19.7333 31.1783 19.16 29.685 19.16ZM51.1709 37.48C50.1309 37.48 49.0109 37.4133 47.8109 37.28C46.6109 37.1467 45.3176 36.9467 43.9309 36.68V8.6L44.8109 10.12L41.2509 9.08V6.2L49.5309 5.88V19.08L48.8509 18.24C49.8109 17.28 50.8643 16.5333 52.0109 16C53.1576 15.44 54.3709 15.16 55.6509 15.16C57.1976 15.16 58.5576 15.5733 59.7309 16.4C60.9043 17.2 61.8243 18.4 62.4909 20C63.1843 21.6 63.5309 23.5733 63.5309 25.92C63.5309 27.6 63.3176 29.1467 62.8909 30.56C62.4909 31.9467 61.8109 33.16 60.8509 34.2C59.9176 35.24 58.6509 36.0533 57.0509 36.64C55.4776 37.2 53.5176 37.48 51.1709 37.48ZM52.1709 33.48C54.0909 33.48 55.4909 32.8533 56.3709 31.6C57.2509 30.3467 57.6909 28.6 57.6909 26.36C57.6909 24.8933 57.5176 23.64 57.1709 22.6C56.8243 21.5333 56.3443 20.72 55.7309 20.16C55.1176 19.5733 54.3576 19.28 53.4509 19.28C52.7576 19.28 52.0243 19.4667 51.2509 19.84C50.4776 20.2133 49.6776 20.7867 48.8509 21.56L49.5309 19.84V34.36L48.8509 33C50.1043 33.32 51.2109 33.48 52.1709 33.48ZM74.2056 33.72L73.8056 33.24L76.8856 34.12V37H65.9256V34.12L69.0056 33.24L68.6056 33.72V19.12L68.9656 19.48L65.9256 18.64V15.76L74.2056 15.48V33.72ZM71.2456 12.36C70.259 12.36 69.459 12.08 68.8456 11.52C68.259 10.96 67.9656 10.16 67.9656 9.12C67.9656 8 68.2723 7.17333 68.8856 6.64C69.5256 6.08 70.3256 5.8 71.2856 5.8C72.219 5.8 72.9923 6.08 73.6056 6.64C74.219 7.17333 74.5256 7.98667 74.5256 9.08C74.5256 10.1733 74.2056 11 73.5656 11.56C72.9523 12.0933 72.179 12.36 71.2456 12.36Z" fill="#F2F2F2"/>
<path d="M86.46 37.48C84.62 37.48 83.22 36.9333 82.26 35.84C81.3267 34.72 80.86 33.0667 80.86 30.88V18.64L81.58 19.36H77.74V16.36L81.66 15.44L80.86 16.4V10.96L86.5 9.96V16.4L85.9 15.64H91.98L91.9 19.36H85.9L86.5 18.64V30.12C86.5 31.2667 86.6867 32.0933 87.06 32.6C87.4333 33.1067 87.9933 33.36 88.74 33.36C89.1667 33.36 89.6333 33.2933 90.14 33.16C90.6733 33 91.2467 32.8 91.86 32.56L92.9 35.64C90.66 36.8667 88.5133 37.48 86.46 37.48ZM91.78 14.24L88.5 13.8C88.74 12.44 88.9133 11.08 89.02 9.72C89.1267 8.36 89.14 6.94666 89.06 5.48L93.78 5.68C93.6467 7.01333 93.4067 8.4 93.06 9.84C92.7133 11.28 92.2867 12.7467 91.78 14.24Z" fill="#589A8D"/>
</svg>
